<svg xmlns="http://www.w3.org/2000/svg" xmlns:xlink="http://www.w3.org/1999/xlink" width="500" zoomAndPan="magnify" viewBox="0 0 375 374.999991" height="500" preserveAspectRatio="xMidYMid meet" version="1.0"><defs><g/></defs><path fill="#f4afe8" d="M 285.640625 39.308594 L 285.925781 39.878906 C 283.171875 47.5 277.953125 54.632812 272.761719 60.769531 L 272.359375 61.246094 C 269.667969 64.390625 266.652344 66.945312 263.066406 69.015625 L 262.566406 69.308594 C 258.042969 71.800781 252.972656 72.75 247.984375 73.867188 C 246.894531 74.113281 245.804688 74.363281 244.710938 74.609375 C 244.039062 74.761719 243.359375 74.914062 242.6875 75.066406 C 241.152344 75.414062 239.636719 75.773438 238.132812 76.226562 L 239.0625 76.242188 C 250.28125 76.457031 250.28125 76.457031 255.304688 77.085938 C 252.867188 82.445312 247.050781 86.902344 242.367188 90.25 C 236.171875 94.601562 229.425781 97.527344 222.105469 99.410156 L 221.152344 99.65625 C 216.550781 100.835938 211.917969 101.824219 207.253906 102.730469 C 204.847656 103.199219 202.453125 103.703125 200.066406 104.273438 C 201.546875 104.292969 202.90625 104.285156 204.359375 103.988281 C 206.894531 103.820312 209.320312 104.367188 211.800781 104.847656 C 209.476562 108.085938 205.457031 110.066406 201.902344 111.699219 C 198.9375 112.996094 195.945312 114.070312 192.847656 114.996094 C 192.199219 115.191406 191.550781 115.386719 190.902344 115.585938 C 189.753906 115.929688 188.605469 116.277344 187.453125 116.625 C 179.972656 118.847656 179.972656 118.847656 172.554688 121.273438 L 171.800781 121.53125 C 165.964844 123.59375 160.964844 126.910156 156.277344 130.890625 L 155.425781 131.597656 C 152.785156 133.800781 150.339844 136.175781 147.917969 138.617188 C 147.277344 139.269531 146.628906 139.914062 145.980469 140.566406 L 144.722656 141.824219 L 144.148438 142.402344 C 143.046875 143.515625 141.984375 144.664062 140.960938 145.851562 C 140.414062 146.484375 139.847656 147.105469 139.285156 147.722656 C 138.179688 148.945312 137.136719 150.207031 136.101562 151.484375 C 135.121094 152.675781 134.109375 153.835938 133.101562 154.996094 C 132.308594 155.898438 131.53125 156.808594 130.753906 157.726562 C 129.300781 159.4375 127.839844 161.09375 126.226562 162.65625 C 125.671875 163.214844 125.160156 163.789062 124.652344 164.394531 C 121.847656 167.628906 118.21875 170.046875 114.207031 171.53125 C 109.417969 173.011719 104.847656 173.40625 99.894531 172.390625 C 94.9375 171.199219 90.433594 168.875 86.722656 165.363281 C 82.46875 161.179688 79.449219 156.097656 77.855469 150.355469 C 76.054688 143.203125 76.207031 135.53125 78.160156 128.421875 C 79.507812 123.972656 81.976562 120.0625 85.011719 116.582031 L 85.515625 115.992188 C 88.714844 112.519531 93.371094 110.066406 97.820312 108.621094 C 105.90625 106.210938 114.710938 106.609375 122.855469 108.496094 C 126.980469 109.507812 130.9375 110.847656 134.8125 112.574219 L 135.648438 112.945312 C 141.222656 115.460938 146.433594 118.464844 151.414062 122.019531 L 150.265625 123.734375 C 149.386719 123.558594 148.746094 123.269531 147.988281 122.792969 L 147.320312 122.378906 L 146.597656 121.929688 C 136.125 115.542969 124.195312 110.367188 111.777344 109.9375 C 105.234375 109.789062 98.964844 110.667969 93.117188 113.734375 C 88.886719 116.21875 85.796875 119.527344 83.363281 123.753906 C 80.769531 128.988281 79.300781 135.566406 79.492188 141.414062 C 79.84375 145.398438 80.484375 149.171875 81.863281 152.929688 L 82.203125 153.863281 C 83.753906 157.835938 86.289062 161.347656 89.503906 164.144531 C 93.113281 167.023438 97.011719 168.863281 101.59375 169.617188 C 106.023438 170.136719 110.386719 169.953125 114.582031 168.3125 C 115.128906 168.0625 115.671875 167.796875 116.207031 167.523438 L 116.949219 167.15625 C 123.707031 163.34375 128.855469 155.34375 133.382812 149.207031 L 133.855469 148.566406 C 134.691406 147.433594 135.527344 146.300781 136.363281 145.164062 C 137.046875 144.230469 137.734375 143.304688 138.421875 142.378906 C 140.394531 139.71875 142.316406 137.035156 144.175781 134.296875 C 144.527344 133.777344 144.878906 133.265625 145.234375 132.753906 C 148.75 127.6875 152.1875 122.566406 155.472656 117.351562 C 159.402344 111.117188 163.582031 105.078125 168.296875 99.410156 L 169.570312 97.835938 C 170.6875 96.460938 171.863281 95.152344 173.0625 93.847656 C 173.648438 93.207031 174.226562 92.554688 174.789062 91.898438 C 175.726562 90.820312 176.722656 89.816406 177.742188 88.820312 C 178.453125 88.113281 179.15625 87.40625 179.855469 86.695312 C 181.117188 85.425781 182.382812 84.191406 183.738281 83.027344 C 184.40625 82.457031 185.050781 81.863281 185.703125 81.273438 C 187.207031 79.917969 188.75 78.625 190.335938 77.371094 L 190.90625 76.914062 C 197.371094 71.777344 204.335938 67.132812 211.515625 63.058594 L 212.449219 62.527344 C 234.699219 49.90625 258.777344 43.144531 285.640625 39.308594 M 275.640625 43.152344 L 274.996094 43.265625 C 252.128906 47.335938 229.769531 55.234375 202.925781 71.648438 L 201.53125 72.609375 C 198.785156 74.507812 196.097656 76.445312 193.484375 78.515625 L 192.734375 79.109375 C 192.027344 79.671875 191.320312 80.238281 190.621094 80.804688 L 189.84375 81.429688 C 188.308594 82.671875 186.808594 83.957031 185.351562 85.289062 C 184.75 85.828125 184.144531 86.359375 183.535156 86.886719 C 182.261719 88 181.0625 89.175781 179.871094 90.375 L 179.25 90.992188 C 178.089844 92.152344 176.976562 93.351562 175.910156 94.585938 C 175.261719 95.335938 174.589844 96.054688 173.914062 96.777344 C 166.941406 104.355469 161.285156 113.25 155.785156 121.925781 C 153.144531 126.09375 150.445312 130.230469 147.691406 134.324219 L 148.546875 134.324219 C 149.070312 133.914062 149.070312 133.914062 149.585938 133.351562 L 150.195312 132.726562 L 150.839844 132.054688 C 152.664062 130.191406 154.484375 128.464844 156.5625 126.886719 L 157.34375 126.257812 C 164.769531 120.460938 173.515625 117.824219 182.457031 115.363281 C 189.746094 113.355469 196.960938 111.144531 203.871094 108.039062 C 204.691406 107.691406 205.515625 107.40625 206.363281 107.136719 L 206.363281 106.566406 C 203.941406 106.554688 201.519531 106.554688 199.101562 106.550781 C 197.976562 106.546875 196.847656 106.542969 195.722656 106.542969 C 194.632812 106.539062 193.546875 106.539062 192.457031 106.535156 C 192.042969 106.535156 191.632812 106.535156 191.222656 106.53125 C 187.277344 106.519531 183.332031 106.578125 179.457031 107.421875 C 181.769531 105.113281 187.664062 104.109375 190.835938 103.222656 C 193.679688 102.476562 196.585938 102.015625 199.480469 101.515625 C 215.9375 98.644531 232.234375 95.597656 245.378906 84.613281 C 248.191406 82.246094 248.191406 82.246094 250.4375 79.375 L 250.152344 79.089844 C 245.648438 78.34375 240.976562 78.417969 236.433594 78.425781 C 235.375 78.429688 234.320312 78.417969 233.261719 78.414062 C 227.230469 78.394531 221.625 79.1875 215.769531 80.570312 L 215.050781 80.742188 C 209.300781 82.085938 203.640625 83.730469 198.0625 85.671875 C 199.003906 85.074219 199.960938 84.511719 200.925781 83.953125 L 201.800781 83.441406 C 208.003906 80.082031 215.246094 78.253906 222.105469 76.796875 L 223.1875 76.566406 C 225.601562 76.050781 228.015625 75.542969 230.429688 75.039062 L 231.226562 74.875 L 232.976562 74.507812 L 233.996094 74.296875 C 236.085938 73.859375 238.175781 73.421875 240.265625 72.980469 C 241.226562 72.777344 242.183594 72.578125 243.144531 72.378906 C 246.71875 71.632812 250.285156 70.882812 253.800781 69.882812 L 254.5 69.683594 C 260.199219 68.003906 264.910156 65.03125 269.042969 60.769531 C 269.859375 59.855469 270.59375 58.890625 271.332031 57.910156 C 271.640625 57.515625 271.949219 57.128906 272.261719 56.738281 C 275.753906 52.328125 278.835938 47.789062 281.347656 42.742188 L 281.347656 42.457031 C 279.417969 42.398438 277.535156 42.820312 275.640625 43.152344 " fill-opacity="1" fill-rule="nonzero"/><path fill="#f4afe8" d="M 283.058594 111.417969 C 287.875 113.921875 291.765625 117.589844 294.703125 122.144531 C 297.589844 126.832031 299.273438 132.566406 299.433594 138.070312 C 299.527344 144.703125 298.457031 150.734375 295.273438 156.613281 C 292.425781 161.625 288.238281 165.933594 283.347656 168.957031 L 282.417969 169.550781 C 276.246094 173.304688 268.609375 175.117188 261.429688 175.335938 C 260.300781 175.359375 259.171875 175.359375 258.039062 175.359375 L 257.308594 175.359375 C 250.328125 175.34375 243.449219 174.511719 236.699219 172.675781 L 235.796875 172.433594 C 219.644531 167.972656 205.222656 160.132812 191.410156 150.824219 L 190.882812 150.464844 C 190.121094 149.949219 189.40625 149.429688 188.710938 148.820312 L 188.046875 148.347656 C 187.335938 148.382812 186.988281 148.578125 186.394531 148.953125 L 185.871094 149.359375 L 185.257812 149.824219 L 184.59375 150.335938 C 178.949219 154.570312 173.03125 158.363281 166.867188 161.800781 L 165.925781 162.328125 C 154.601562 168.667969 142.398438 173.980469 129.230469 174.175781 C 128.515625 174.109375 128.515625 174.109375 127.65625 173.535156 L 128.226562 173.425781 C 137.96875 171.558594 147.066406 168.738281 155.988281 164.375 L 156.898438 163.941406 C 161.496094 161.722656 165.929688 159.289062 170.300781 156.648438 L 170.9375 156.269531 C 174.023438 154.421875 176.964844 152.371094 179.90625 150.304688 L 180.6875 149.753906 C 181.210938 149.386719 181.734375 149.011719 182.257812 148.632812 L 183.019531 148.082031 L 183.699219 147.59375 C 184.300781 147.21875 184.773438 147.042969 185.46875 146.917969 L 185.46875 146.058594 L 184.960938 145.816406 C 184.367188 145.507812 183.855469 145.175781 183.316406 144.777344 L 182.726562 144.347656 C 182.519531 144.191406 182.304688 144.039062 182.089844 143.878906 C 180.03125 142.378906 177.957031 140.910156 175.863281 139.460938 L 175.019531 138.871094 C 173.972656 138.144531 172.921875 137.417969 171.875 136.691406 C 164.777344 131.765625 164.777344 131.765625 163.144531 129.460938 L 163.144531 128.886719 C 168.46875 130.457031 173.246094 134.066406 177.742188 137.1875 L 178.4375 137.667969 C 179.835938 138.640625 181.222656 139.625 182.605469 140.621094 L 183.3125 141.128906 C 184.796875 142.199219 186.28125 143.269531 187.761719 144.339844 C 188.582031 143.960938 189.246094 143.53125 189.9375 142.949219 L 190.53125 142.453125 L 191.160156 141.929688 C 194.085938 139.488281 197.078125 137.144531 200.101562 134.828125 C 201.035156 134.109375 201.96875 133.382812 202.890625 132.648438 C 218.050781 120.65625 234.386719 110.550781 253.777344 107.59375 C 263.609375 106.21875 274.089844 106.941406 283.058594 111.417969 M 223.820312 121.445312 L 223.074219 121.878906 C 217.53125 125.09375 212.320312 128.714844 207.253906 132.628906 C 205.832031 133.726562 204.390625 134.789062 202.945312 135.84375 C 199.871094 138.097656 196.886719 140.445312 193.945312 142.871094 C 192.9375 143.699219 191.910156 144.503906 190.878906 145.308594 C 190.308594 145.734375 190.308594 145.734375 190.046875 146.347656 C 197.480469 151.347656 205 156.222656 212.945312 160.371094 L 213.699219 160.765625 C 227.203125 167.816406 241.640625 172.734375 256.984375 172.746094 L 257.648438 172.746094 C 266 172.734375 273.945312 171.289062 281.316406 167.207031 C 286.085938 164.433594 289.96875 160.46875 292.761719 155.726562 C 295.476562 150.914062 296.878906 145.464844 296.875 139.945312 C 296.78125 134.113281 295.164062 128.472656 292.222656 123.453125 C 291.617188 122.523438 290.953125 121.699219 290.21875 120.875 L 289.515625 120.046875 C 286.109375 116.117188 281.988281 113.578125 277.117188 111.847656 C 259.238281 105.789062 239.402344 112.308594 223.820312 121.445312 " fill-opacity="1" fill-rule="nonzero"/><path fill="#f4afe8" d="M 199.777344 84.238281 L 200.351562 84.527344 C 199.886719 85.082031 199.886719 85.082031 199.207031 85.671875 C 198.277344 85.882812 198.277344 85.882812 197.492188 85.957031 C 198.238281 85.351562 198.976562 84.773438 199.777344 84.238281 " fill-opacity="1" fill-rule="nonzero"/><g fill="#000000" fill-opacity="1"><g transform="translate(2.033207, 228.749999)"><g><path d="M 19.703125 -7.734375 L 25.5625 -22.71875 C 26.132812 -24.195312 26.59375 -25.398438 26.9375 -26.328125 C 27.28125 -27.253906 27.539062 -28.015625 27.71875 -28.609375 C 27.894531 -29.210938 28.015625 -29.691406 28.078125 -30.046875 C 28.140625 -30.410156 28.171875 -30.757812 28.171875 -31.09375 C 28.171875 -31.8125 27.898438 -32.28125 27.359375 -32.5 C 26.816406 -32.726562 25.738281 -32.84375 24.125 -32.84375 L 24.125 -34.65625 L 36.90625 -34.65625 L 36.90625 -32.84375 C 34.414062 -32.84375 32.6875 -31.628906 31.71875 -29.203125 L 19.890625 0.453125 L 16.5625 0.453125 L 5.8125 -25.828125 C 5.207031 -27.234375 4.664062 -28.382812 4.1875 -29.28125 C 3.707031 -30.1875 3.195312 -30.898438 2.65625 -31.421875 C 2.113281 -31.953125 1.519531 -32.316406 0.875 -32.515625 C 0.226562 -32.710938 -0.523438 -32.8125 -1.390625 -32.8125 L -1.390625 -34.65625 L 15.609375 -34.65625 L 15.609375 -32.8125 C 14.828125 -32.78125 14.175781 -32.734375 13.65625 -32.671875 C 13.132812 -32.609375 12.722656 -32.507812 12.421875 -32.375 C 12.117188 -32.238281 11.90625 -32.054688 11.78125 -31.828125 C 11.664062 -31.609375 11.609375 -31.332031 11.609375 -31 C 11.609375 -30.582031 11.679688 -30.085938 11.828125 -29.515625 C 11.984375 -28.953125 12.210938 -28.265625 12.515625 -27.453125 Z M 19.703125 -7.734375 "/></g></g></g><g fill="#000000" fill-opacity="1"><g transform="translate(37.573919, 228.749999)"><g><path d="M 11.5625 -7.375 C 11.5625 -6.175781 11.601562 -5.21875 11.6875 -4.5 C 11.78125 -3.78125 11.960938 -3.222656 12.234375 -2.828125 C 12.503906 -2.441406 12.894531 -2.179688 13.40625 -2.046875 C 13.914062 -1.910156 14.609375 -1.828125 15.484375 -1.796875 L 15.484375 0 L 1.3125 0 L 1.3125 -1.796875 C 2.144531 -1.828125 2.820312 -1.925781 3.34375 -2.09375 C 3.875 -2.257812 4.28125 -2.53125 4.5625 -2.90625 C 4.851562 -3.28125 5.050781 -3.800781 5.15625 -4.46875 C 5.257812 -5.144531 5.3125 -6.007812 5.3125 -7.0625 L 5.3125 -12.59375 C 5.3125 -14.332031 5.28125 -15.765625 5.21875 -16.890625 C 5.15625 -18.015625 5.082031 -18.789062 5 -19.21875 C 4.84375 -19.96875 4.5 -20.460938 3.96875 -20.703125 C 3.445312 -20.941406 2.5 -21.0625 1.125 -21.0625 L 1.125 -22.59375 L 11.5625 -24.296875 Z M 4.953125 -33.84375 C 4.953125 -34.832031 5.285156 -35.660156 5.953125 -36.328125 C 6.628906 -37.003906 7.453125 -37.34375 8.421875 -37.34375 C 9.410156 -37.34375 10.238281 -37.003906 10.90625 -36.328125 C 11.582031 -35.660156 11.921875 -34.832031 11.921875 -33.84375 C 11.921875 -32.882812 11.582031 -32.066406 10.90625 -31.390625 C 10.238281 -30.710938 9.410156 -30.375 8.421875 -30.375 C 7.453125 -30.375 6.628906 -30.710938 5.953125 -31.390625 C 5.285156 -32.066406 4.953125 -32.882812 4.953125 -33.84375 Z M 4.953125 -33.84375 "/></g></g></g><g fill="#000000" fill-opacity="1"><g transform="translate(53.814709, 228.749999)"><g><path d="M 23.765625 -3.734375 C 22.617188 -2.472656 21.195312 -1.5 19.5 -0.8125 C 17.8125 -0.125 15.976562 0.21875 14 0.21875 C 12.164062 0.21875 10.5 -0.0703125 9 -0.65625 C 7.5 -1.238281 6.207031 -2.054688 5.125 -3.109375 C 4.050781 -4.160156 3.21875 -5.425781 2.625 -6.90625 C 2.039062 -8.394531 1.75 -10.035156 1.75 -11.828125 C 1.75 -13.691406 2.0625 -15.390625 2.6875 -16.921875 C 3.320312 -18.453125 4.207031 -19.765625 5.34375 -20.859375 C 6.488281 -21.953125 7.851562 -22.796875 9.4375 -23.390625 C 11.03125 -23.992188 12.789062 -24.296875 14.71875 -24.296875 C 16.0625 -24.296875 17.3125 -24.160156 18.46875 -23.890625 C 19.625 -23.617188 20.613281 -23.242188 21.4375 -22.765625 C 22.269531 -22.285156 22.925781 -21.722656 23.40625 -21.078125 C 23.882812 -20.429688 24.125 -19.734375 24.125 -18.984375 C 24.125 -18.117188 23.875 -17.429688 23.375 -16.921875 C 22.882812 -16.410156 22.21875 -16.15625 21.375 -16.15625 C 20.6875 -16.15625 20.078125 -16.332031 19.546875 -16.6875 C 19.023438 -17.050781 18.507812 -17.640625 18 -18.453125 C 17.550781 -19.171875 17.164062 -19.738281 16.84375 -20.15625 C 16.53125 -20.582031 16.238281 -20.90625 15.96875 -21.125 C 15.695312 -21.351562 15.425781 -21.503906 15.15625 -21.578125 C 14.894531 -21.648438 14.566406 -21.6875 14.171875 -21.6875 C 12.429688 -21.6875 11.082031 -20.875 10.125 -19.25 C 9.164062 -17.632812 8.6875 -15.375 8.6875 -12.46875 C 8.6875 -9.34375 9.265625 -6.941406 10.421875 -5.265625 C 11.578125 -3.585938 13.234375 -2.75 15.390625 -2.75 C 16.617188 -2.75 17.847656 -2.976562 19.078125 -3.4375 C 20.304688 -3.90625 21.476562 -4.570312 22.59375 -5.4375 Z M 23.765625 -3.734375 "/></g></g></g><g fill="#000000" fill-opacity="1"><g transform="translate(79.188125, 228.749999)"><g><path d="M 1.125 -21.375 L 1.125 -23.40625 C 2.925781 -23.914062 4.429688 -24.6875 5.640625 -25.71875 C 6.859375 -26.75 7.769531 -27.941406 8.375 -29.296875 L 10.671875 -29.296875 L 10.671875 -23.84375 L 15.84375 -23.84375 L 15.84375 -21.375 L 10.671875 -21.375 L 10.671875 -7.5625 C 10.671875 -5.695312 10.867188 -4.375 11.265625 -3.59375 C 11.671875 -2.820312 12.351562 -2.4375 13.3125 -2.4375 C 14.488281 -2.4375 15.375 -2.972656 15.96875 -4.046875 L 16.921875 -2.75 C 16.078125 -0.613281 14.097656 0.453125 10.984375 0.453125 C 8.910156 0.453125 7.296875 -0.0234375 6.140625 -0.984375 C 4.984375 -1.953125 4.40625 -3.304688 4.40625 -5.046875 L 4.40625 -21.375 Z M 1.125 -21.375 "/></g></g></g><g fill="#000000" fill-opacity="1"><g transform="translate(96.373671, 228.749999)"><g><path d="M 14.765625 -24.296875 C 16.554688 -24.296875 18.253906 -23.988281 19.859375 -23.375 C 21.472656 -22.757812 22.882812 -21.910156 24.09375 -20.828125 C 25.3125 -19.753906 26.269531 -18.472656 26.96875 -16.984375 C 27.675781 -15.503906 28.03125 -13.878906 28.03125 -12.109375 C 28.03125 -10.273438 27.675781 -8.59375 26.96875 -7.0625 C 26.269531 -5.53125 25.3125 -4.207031 24.09375 -3.09375 C 22.882812 -1.988281 21.472656 -1.117188 19.859375 -0.484375 C 18.253906 0.140625 16.554688 0.453125 14.765625 0.453125 C 12.992188 0.453125 11.3125 0.144531 9.71875 -0.46875 C 8.125 -1.082031 6.726562 -1.941406 5.53125 -3.046875 C 4.332031 -4.160156 3.390625 -5.488281 2.703125 -7.03125 C 2.015625 -8.582031 1.671875 -10.273438 1.671875 -12.109375 C 1.671875 -13.878906 2.015625 -15.515625 2.703125 -17.015625 C 3.390625 -18.515625 4.332031 -19.800781 5.53125 -20.875 C 6.726562 -21.957031 8.125 -22.796875 9.71875 -23.390625 C 11.3125 -23.992188 12.992188 -24.296875 14.765625 -24.296875 Z M 14.765625 -21.6875 C 13.859375 -21.6875 13.03125 -21.453125 12.28125 -20.984375 C 11.53125 -20.523438 10.890625 -19.875 10.359375 -19.03125 C 9.835938 -18.195312 9.4375 -17.1875 9.15625 -16 C 8.875 -14.8125 8.734375 -13.5 8.734375 -12.0625 C 8.734375 -10.5625 8.875 -9.207031 9.15625 -8 C 9.4375 -6.800781 9.835938 -5.78125 10.359375 -4.9375 C 10.890625 -4.101562 11.519531 -3.453125 12.25 -2.984375 C 12.988281 -2.523438 13.828125 -2.296875 14.765625 -2.296875 C 15.691406 -2.296875 16.535156 -2.523438 17.296875 -2.984375 C 18.066406 -3.453125 18.71875 -4.113281 19.25 -4.96875 C 19.789062 -5.820312 20.210938 -6.847656 20.515625 -8.046875 C 20.816406 -9.253906 20.96875 -10.59375 20.96875 -12.0625 C 20.96875 -13.5 20.816406 -14.800781 20.515625 -15.96875 C 20.210938 -17.144531 19.789062 -18.160156 19.25 -19.015625 C 18.71875 -19.867188 18.066406 -20.523438 17.296875 -20.984375 C 16.535156 -21.453125 15.691406 -21.6875 14.765625 -21.6875 Z M 14.765625 -21.6875 "/></g></g></g><g fill="#000000" fill-opacity="1"><g transform="translate(126.065972, 228.749999)"><g><path d="M 11.609375 -6.96875 C 11.609375 -5.800781 11.660156 -4.878906 11.765625 -4.203125 C 11.867188 -3.523438 12.085938 -3.003906 12.421875 -2.640625 C 12.753906 -2.285156 13.234375 -2.054688 13.859375 -1.953125 C 14.492188 -1.847656 15.332031 -1.796875 16.375 -1.796875 L 16.375 0 L 1.34375 0 L 1.34375 -1.796875 C 2.25 -1.859375 2.96875 -1.945312 3.5 -2.0625 C 4.039062 -2.1875 4.445312 -2.425781 4.71875 -2.78125 C 4.988281 -3.144531 5.160156 -3.664062 5.234375 -4.34375 C 5.316406 -5.019531 5.359375 -5.925781 5.359375 -7.0625 L 5.359375 -12.5625 C 5.359375 -14.414062 5.3125 -15.894531 5.21875 -17 C 5.125 -18.113281 4.925781 -18.96875 4.625 -19.5625 C 4.332031 -20.164062 3.90625 -20.566406 3.34375 -20.765625 C 2.789062 -20.960938 2.066406 -21.0625 1.171875 -21.0625 L 1.171875 -22.640625 L 10.171875 -24.296875 L 10.890625 -19.125 L 11.0625 -19.125 C 11.875 -20.71875 12.941406 -21.976562 14.265625 -22.90625 C 15.585938 -23.832031 16.984375 -24.296875 18.453125 -24.296875 C 19.585938 -24.296875 20.515625 -24.007812 21.234375 -23.4375 C 21.953125 -22.875 22.3125 -22.15625 22.3125 -21.28125 C 22.3125 -20.320312 22.035156 -19.507812 21.484375 -18.84375 C 20.929688 -18.1875 20.175781 -17.859375 19.21875 -17.859375 C 18.769531 -17.859375 18.363281 -17.945312 18 -18.125 C 17.632812 -18.3125 17.3125 -18.515625 17.03125 -18.734375 C 16.75 -18.960938 16.460938 -19.175781 16.171875 -19.375 C 15.890625 -19.570312 15.597656 -19.671875 15.296875 -19.671875 C 14.722656 -19.671875 14.179688 -19.296875 13.671875 -18.546875 C 13.171875 -17.796875 12.753906 -16.789062 12.421875 -15.53125 C 12.179688 -14.625 11.984375 -13.609375 11.828125 -12.484375 C 11.679688 -11.359375 11.609375 -10.242188 11.609375 -9.140625 Z M 11.609375 -6.96875 "/></g></g></g><g fill="#000000" fill-opacity="1"><g transform="translate(148.47016, 228.749999)"><g><path d="M 11.5625 -7.375 C 11.5625 -6.175781 11.601562 -5.21875 11.6875 -4.5 C 11.78125 -3.78125 11.960938 -3.222656 12.234375 -2.828125 C 12.503906 -2.441406 12.894531 -2.179688 13.40625 -2.046875 C 13.914062 -1.910156 14.609375 -1.828125 15.484375 -1.796875 L 15.484375 0 L 1.3125 0 L 1.3125 -1.796875 C 2.144531 -1.828125 2.820312 -1.925781 3.34375 -2.09375 C 3.875 -2.257812 4.28125 -2.53125 4.5625 -2.90625 C 4.851562 -3.28125 5.050781 -3.800781 5.15625 -4.46875 C 5.257812 -5.144531 5.3125 -6.007812 5.3125 -7.0625 L 5.3125 -12.59375 C 5.3125 -14.332031 5.28125 -15.765625 5.21875 -16.890625 C 5.15625 -18.015625 5.082031 -18.789062 5 -19.21875 C 4.84375 -19.96875 4.5 -20.460938 3.96875 -20.703125 C 3.445312 -20.941406 2.5 -21.0625 1.125 -21.0625 L 1.125 -22.59375 L 11.5625 -24.296875 Z M 4.953125 -33.84375 C 4.953125 -34.832031 5.285156 -35.660156 5.953125 -36.328125 C 6.628906 -37.003906 7.453125 -37.34375 8.421875 -37.34375 C 9.410156 -37.34375 10.238281 -37.003906 10.90625 -36.328125 C 11.582031 -35.660156 11.921875 -34.832031 11.921875 -33.84375 C 11.921875 -32.882812 11.582031 -32.066406 10.90625 -31.390625 C 10.238281 -30.710938 9.410156 -30.375 8.421875 -30.375 C 7.453125 -30.375 6.628906 -30.710938 5.953125 -31.390625 C 5.285156 -32.066406 4.953125 -32.882812 4.953125 -33.84375 Z M 4.953125 -33.84375 "/></g></g></g><g fill="#000000" fill-opacity="1"><g transform="translate(164.71095, 228.749999)"><g><path d="M 15.484375 -12.828125 C 12.960938 -11.679688 11.0625 -10.617188 9.78125 -9.640625 C 8.507812 -8.671875 7.875 -7.660156 7.875 -6.609375 C 7.875 -5.742188 8.113281 -5.054688 8.59375 -4.546875 C 9.070312 -4.035156 9.671875 -3.78125 10.390625 -3.78125 C 11.109375 -3.78125 11.78125 -3.90625 12.40625 -4.15625 C 13.039062 -4.414062 13.582031 -4.753906 14.03125 -5.171875 C 14.488281 -5.597656 14.84375 -6.101562 15.09375 -6.6875 C 15.351562 -7.269531 15.484375 -7.890625 15.484375 -8.546875 Z M 15.484375 -15.203125 L 15.484375 -17.09375 C 15.484375 -18.832031 15.175781 -20.097656 14.5625 -20.890625 C 13.945312 -21.691406 12.992188 -22.09375 11.703125 -22.09375 C 10.828125 -22.09375 10.164062 -21.859375 9.71875 -21.390625 C 9.269531 -20.929688 8.847656 -20.160156 8.453125 -19.078125 C 8.191406 -18.328125 7.8125 -17.738281 7.3125 -17.3125 C 6.8125 -16.894531 6.128906 -16.6875 5.265625 -16.6875 C 4.421875 -16.6875 3.773438 -16.941406 3.328125 -17.453125 C 2.878906 -17.960938 2.65625 -18.6875 2.65625 -19.625 C 2.65625 -21.0625 3.441406 -22.195312 5.015625 -23.03125 C 6.585938 -23.875 8.96875 -24.296875 12.15625 -24.296875 C 15.507812 -24.296875 17.90625 -23.6875 19.34375 -22.46875 C 20.789062 -21.257812 21.515625 -19.226562 21.515625 -16.375 L 21.515625 -6.53125 C 21.515625 -3.976562 22.023438 -2.703125 23.046875 -2.703125 C 23.609375 -2.703125 24.128906 -2.894531 24.609375 -3.28125 L 25.296875 -1.984375 C 24.867188 -1.234375 24.210938 -0.640625 23.328125 -0.203125 C 22.441406 0.234375 21.445312 0.453125 20.34375 0.453125 C 18.957031 0.453125 17.90625 0.0351562 17.1875 -0.796875 C 16.46875 -1.640625 16.109375 -2.828125 16.109375 -4.359375 L 15.890625 -4.359375 C 15.015625 -2.804688 13.882812 -1.625 12.5 -0.8125 C 11.125 0 9.550781 0.40625 7.78125 0.40625 C 5.894531 0.40625 4.378906 -0.125 3.234375 -1.1875 C 2.097656 -2.257812 1.53125 -3.648438 1.53125 -5.359375 C 1.53125 -6.671875 2.113281 -7.90625 3.28125 -9.0625 C 4.457031 -10.21875 6.410156 -11.351562 9.140625 -12.46875 Z M 15.484375 -15.203125 "/></g></g></g><g fill="#000000" fill-opacity="1"><g transform="translate(190.534255, 228.749999)"><g/></g></g><g fill="#000000" fill-opacity="1"><g transform="translate(202.501135, 228.749999)"><g><path d="M 12.921875 -7.25 C 12.921875 -6.101562 12.992188 -5.175781 13.140625 -4.46875 C 13.285156 -3.769531 13.59375 -3.234375 14.0625 -2.859375 C 14.53125 -2.484375 15.191406 -2.21875 16.046875 -2.0625 C 16.898438 -1.914062 18.046875 -1.828125 19.484375 -1.796875 L 19.484375 0 L 1.578125 0 L 1.578125 -1.796875 C 2.566406 -1.828125 3.375 -1.914062 4 -2.0625 C 4.632812 -2.21875 5.113281 -2.472656 5.4375 -2.828125 C 5.769531 -3.191406 5.992188 -3.703125 6.109375 -4.359375 C 6.234375 -5.023438 6.296875 -5.882812 6.296875 -6.9375 L 6.296875 -27.71875 C 6.296875 -28.769531 6.242188 -29.617188 6.140625 -30.265625 C 6.035156 -30.910156 5.832031 -31.421875 5.53125 -31.796875 C 5.226562 -32.171875 4.800781 -32.425781 4.25 -32.5625 C 3.695312 -32.695312 2.96875 -32.789062 2.0625 -32.84375 L 2.0625 -34.65625 L 29.609375 -34.65625 L 30.15625 -25.15625 L 28.265625 -25.15625 C 28.078125 -26.445312 27.8125 -27.535156 27.46875 -28.421875 C 27.125 -29.304688 26.632812 -30.023438 26 -30.578125 C 25.375 -31.128906 24.566406 -31.523438 23.578125 -31.765625 C 22.585938 -32.003906 21.375 -32.125 19.9375 -32.125 L 13.71875 -32.125 C 13.1875 -32.125 12.921875 -31.867188 12.921875 -31.359375 L 12.921875 -18.359375 C 14.742188 -18.359375 16.234375 -18.429688 17.390625 -18.578125 C 18.546875 -18.734375 19.46875 -19.023438 20.15625 -19.453125 C 20.84375 -19.890625 21.335938 -20.484375 21.640625 -21.234375 C 21.941406 -21.984375 22.15625 -22.972656 22.28125 -24.203125 L 23.9375 -24.203125 L 23.9375 -10.125 L 22.28125 -10.125 C 22.09375 -11.382812 21.832031 -12.394531 21.5 -13.15625 C 21.175781 -13.925781 20.675781 -14.515625 20 -14.921875 C 19.320312 -15.328125 18.410156 -15.601562 17.265625 -15.75 C 16.128906 -15.894531 14.679688 -15.96875 12.921875 -15.96875 Z M 12.921875 -7.25 "/></g></g></g><g fill="#000000" fill-opacity="1"><g transform="translate(232.328305, 228.749999)"><g><path d="M 15.484375 -12.828125 C 12.960938 -11.679688 11.0625 -10.617188 9.78125 -9.640625 C 8.507812 -8.671875 7.875 -7.660156 7.875 -6.609375 C 7.875 -5.742188 8.113281 -5.054688 8.59375 -4.546875 C 9.070312 -4.035156 9.671875 -3.78125 10.390625 -3.78125 C 11.109375 -3.78125 11.78125 -3.90625 12.40625 -4.15625 C 13.039062 -4.414062 13.582031 -4.753906 14.03125 -5.171875 C 14.488281 -5.597656 14.84375 -6.101562 15.09375 -6.6875 C 15.351562 -7.269531 15.484375 -7.890625 15.484375 -8.546875 Z M 15.484375 -15.203125 L 15.484375 -17.09375 C 15.484375 -18.832031 15.175781 -20.097656 14.5625 -20.890625 C 13.945312 -21.691406 12.992188 -22.09375 11.703125 -22.09375 C 10.828125 -22.09375 10.164062 -21.859375 9.71875 -21.390625 C 9.269531 -20.929688 8.847656 -20.160156 8.453125 -19.078125 C 8.191406 -18.328125 7.8125 -17.738281 7.3125 -17.3125 C 6.8125 -16.894531 6.128906 -16.6875 5.265625 -16.6875 C 4.421875 -16.6875 3.773438 -16.941406 3.328125 -17.453125 C 2.878906 -17.960938 2.65625 -18.6875 2.65625 -19.625 C 2.65625 -21.0625 3.441406 -22.195312 5.015625 -23.03125 C 6.585938 -23.875 8.96875 -24.296875 12.15625 -24.296875 C 15.507812 -24.296875 17.90625 -23.6875 19.34375 -22.46875 C 20.789062 -21.257812 21.515625 -19.226562 21.515625 -16.375 L 21.515625 -6.53125 C 21.515625 -3.976562 22.023438 -2.703125 23.046875 -2.703125 C 23.609375 -2.703125 24.128906 -2.894531 24.609375 -3.28125 L 25.296875 -1.984375 C 24.867188 -1.234375 24.210938 -0.640625 23.328125 -0.203125 C 22.441406 0.234375 21.445312 0.453125 20.34375 0.453125 C 18.957031 0.453125 17.90625 0.0351562 17.1875 -0.796875 C 16.46875 -1.640625 16.109375 -2.828125 16.109375 -4.359375 L 15.890625 -4.359375 C 15.015625 -2.804688 13.882812 -1.625 12.5 -0.8125 C 11.125 0 9.550781 0.40625 7.78125 0.40625 C 5.894531 0.40625 4.378906 -0.125 3.234375 -1.1875 C 2.097656 -2.257812 1.53125 -3.648438 1.53125 -5.359375 C 1.53125 -6.671875 2.113281 -7.90625 3.28125 -9.0625 C 4.457031 -10.21875 6.410156 -11.351562 9.140625 -12.46875 Z M 15.484375 -15.203125 "/></g></g></g><g fill="#000000" fill-opacity="1"><g transform="translate(258.151599, 228.749999)"><g><path d="M 11.609375 -6.96875 C 11.609375 -5.800781 11.660156 -4.878906 11.765625 -4.203125 C 11.867188 -3.523438 12.085938 -3.003906 12.421875 -2.640625 C 12.753906 -2.285156 13.234375 -2.054688 13.859375 -1.953125 C 14.492188 -1.847656 15.332031 -1.796875 16.375 -1.796875 L 16.375 0 L 1.34375 0 L 1.34375 -1.796875 C 2.25 -1.859375 2.96875 -1.945312 3.5 -2.0625 C 4.039062 -2.1875 4.445312 -2.425781 4.71875 -2.78125 C 4.988281 -3.144531 5.160156 -3.664062 5.234375 -4.34375 C 5.316406 -5.019531 5.359375 -5.925781 5.359375 -7.0625 L 5.359375 -12.5625 C 5.359375 -14.414062 5.3125 -15.894531 5.21875 -17 C 5.125 -18.113281 4.925781 -18.96875 4.625 -19.5625 C 4.332031 -20.164062 3.90625 -20.566406 3.34375 -20.765625 C 2.789062 -20.960938 2.066406 -21.0625 1.171875 -21.0625 L 1.171875 -22.640625 L 10.171875 -24.296875 L 10.890625 -19.125 L 11.0625 -19.125 C 11.875 -20.71875 12.941406 -21.976562 14.265625 -22.90625 C 15.585938 -23.832031 16.984375 -24.296875 18.453125 -24.296875 C 19.585938 -24.296875 20.515625 -24.007812 21.234375 -23.4375 C 21.953125 -22.875 22.3125 -22.15625 22.3125 -21.28125 C 22.3125 -20.320312 22.035156 -19.507812 21.484375 -18.84375 C 20.929688 -18.1875 20.175781 -17.859375 19.21875 -17.859375 C 18.769531 -17.859375 18.363281 -17.945312 18 -18.125 C 17.632812 -18.3125 17.3125 -18.515625 17.03125 -18.734375 C 16.75 -18.960938 16.460938 -19.175781 16.171875 -19.375 C 15.890625 -19.570312 15.597656 -19.671875 15.296875 -19.671875 C 14.722656 -19.671875 14.179688 -19.296875 13.671875 -18.546875 C 13.171875 -17.796875 12.753906 -16.789062 12.421875 -15.53125 C 12.179688 -14.625 11.984375 -13.609375 11.828125 -12.484375 C 11.679688 -11.359375 11.609375 -10.242188 11.609375 -9.140625 Z M 11.609375 -6.96875 "/></g></g></g><g fill="#000000" fill-opacity="1"><g transform="translate(280.555787, 228.749999)"><g><path d="M 10.265625 -4.859375 C 11.066406 -4.796875 11.773438 -4.734375 12.390625 -4.671875 C 13.003906 -4.617188 13.585938 -4.550781 14.140625 -4.46875 C 14.703125 -4.394531 15.257812 -4.320312 15.8125 -4.25 C 16.375 -4.175781 16.96875 -4.09375 17.59375 -4 C 19.9375 -3.675781 21.773438 -2.800781 23.109375 -1.375 C 24.441406 0.0507812 25.109375 1.816406 25.109375 3.921875 C 25.109375 6.460938 24.054688 8.394531 21.953125 9.71875 C 19.859375 11.039062 16.769531 11.703125 12.6875 11.703125 C 8.9375 11.703125 6.046875 11.15625 4.015625 10.0625 C 1.992188 8.96875 0.984375 7.414062 0.984375 5.40625 C 0.984375 3.84375 1.390625 2.660156 2.203125 1.859375 C 3.015625 1.066406 4.035156 0.671875 5.265625 0.671875 C 6.046875 0.671875 6.800781 0.828125 7.53125 1.140625 C 8.269531 1.460938 8.894531 1.921875 9.40625 2.515625 C 8.625 2.671875 7.984375 3.023438 7.484375 3.578125 C 6.992188 4.128906 6.75 4.78125 6.75 5.53125 C 6.75 6.726562 7.28125 7.648438 8.34375 8.296875 C 9.40625 8.941406 10.972656 9.265625 13.046875 9.265625 C 17.546875 9.265625 19.796875 7.84375 19.796875 5 C 19.796875 3.976562 19.457031 3.097656 18.78125 2.359375 C 18.113281 1.628906 17.148438 1.1875 15.890625 1.03125 L 8.015625 -0.046875 C 4.679688 -0.492188 3.015625 -1.976562 3.015625 -4.5 C 3.015625 -5.726562 3.410156 -6.734375 4.203125 -7.515625 C 5.003906 -8.296875 6.140625 -8.835938 7.609375 -9.140625 L 7.609375 -9.3125 C 6.910156 -9.582031 6.285156 -9.957031 5.734375 -10.4375 C 5.179688 -10.914062 4.691406 -11.46875 4.265625 -12.09375 C 3.847656 -12.726562 3.523438 -13.410156 3.296875 -14.140625 C 3.078125 -14.878906 2.96875 -15.640625 2.96875 -16.421875 C 2.96875 -17.535156 3.195312 -18.578125 3.65625 -19.546875 C 4.125 -20.523438 4.769531 -21.359375 5.59375 -22.046875 C 6.425781 -22.734375 7.40625 -23.28125 8.53125 -23.6875 C 9.65625 -24.09375 10.875 -24.296875 12.1875 -24.296875 C 13.476562 -24.296875 14.738281 -24.097656 15.96875 -23.703125 C 17.195312 -23.316406 18.25 -22.78125 19.125 -22.09375 C 19.8125 -22.507812 20.410156 -22.859375 20.921875 -23.140625 C 21.429688 -23.429688 21.90625 -23.660156 22.34375 -23.828125 C 22.78125 -23.992188 23.175781 -24.113281 23.53125 -24.1875 C 23.894531 -24.257812 24.253906 -24.296875 24.609375 -24.296875 C 25.753906 -24.296875 26.675781 -24.039062 27.375 -23.53125 C 28.082031 -23.019531 28.4375 -22.347656 28.4375 -21.515625 C 28.4375 -20.878906 28.238281 -20.359375 27.84375 -19.953125 C 27.457031 -19.546875 26.953125 -19.34375 26.328125 -19.34375 C 25.878906 -19.34375 25.519531 -19.441406 25.25 -19.640625 C 24.976562 -19.835938 24.710938 -20.0625 24.453125 -20.3125 C 24.203125 -20.570312 23.941406 -20.796875 23.671875 -20.984375 C 23.398438 -21.179688 23.039062 -21.28125 22.59375 -21.28125 C 21.957031 -21.28125 21.359375 -20.875 20.796875 -20.0625 C 21.085938 -19.5625 21.289062 -19.015625 21.40625 -18.421875 C 21.53125 -17.835938 21.59375 -17.15625 21.59375 -16.375 C 21.59375 -15.238281 21.410156 -14.191406 21.046875 -13.234375 C 20.691406 -12.273438 20.128906 -11.425781 19.359375 -10.6875 C 18.597656 -9.945312 17.617188 -9.320312 16.421875 -8.8125 C 15.222656 -8.3125 13.769531 -7.96875 12.0625 -7.78125 C 10.625 -7.632812 9.625 -7.441406 9.0625 -7.203125 C 8.507812 -6.960938 8.234375 -6.601562 8.234375 -6.125 C 8.234375 -5.40625 8.910156 -4.984375 10.265625 -4.859375 Z M 12.421875 -10.34375 C 13.378906 -10.34375 14.128906 -10.851562 14.671875 -11.875 C 15.210938 -12.894531 15.484375 -14.320312 15.484375 -16.15625 C 15.484375 -18.007812 15.210938 -19.4375 14.671875 -20.4375 C 14.128906 -21.445312 13.363281 -21.953125 12.375 -21.953125 C 11.351562 -21.953125 10.539062 -21.441406 9.9375 -20.421875 C 9.34375 -19.410156 9.046875 -18.019531 9.046875 -16.25 C 9.046875 -14.445312 9.351562 -13.007812 9.96875 -11.9375 C 10.582031 -10.875 11.398438 -10.34375 12.421875 -10.34375 Z M 12.421875 -10.34375 "/></g></g></g><g fill="#000000" fill-opacity="1"><g transform="translate(307.998672, 228.749999)"><g><path d="M 11.5625 -7.375 C 11.5625 -6.175781 11.601562 -5.21875 11.6875 -4.5 C 11.78125 -3.78125 11.960938 -3.222656 12.234375 -2.828125 C 12.503906 -2.441406 12.894531 -2.179688 13.40625 -2.046875 C 13.914062 -1.910156 14.609375 -1.828125 15.484375 -1.796875 L 15.484375 0 L 1.3125 0 L 1.3125 -1.796875 C 2.144531 -1.828125 2.820312 -1.925781 3.34375 -2.09375 C 3.875 -2.257812 4.28125 -2.53125 4.5625 -2.90625 C 4.851562 -3.28125 5.050781 -3.800781 5.15625 -4.46875 C 5.257812 -5.144531 5.3125 -6.007812 5.3125 -7.0625 L 5.3125 -12.59375 C 5.3125 -14.332031 5.28125 -15.765625 5.21875 -16.890625 C 5.15625 -18.015625 5.082031 -18.789062 5 -19.21875 C 4.84375 -19.96875 4.5 -20.460938 3.96875 -20.703125 C 3.445312 -20.941406 2.5 -21.0625 1.125 -21.0625 L 1.125 -22.59375 L 11.5625 -24.296875 Z M 4.953125 -33.84375 C 4.953125 -34.832031 5.285156 -35.660156 5.953125 -36.328125 C 6.628906 -37.003906 7.453125 -37.34375 8.421875 -37.34375 C 9.410156 -37.34375 10.238281 -37.003906 10.90625 -36.328125 C 11.582031 -35.660156 11.921875 -34.832031 11.921875 -33.84375 C 11.921875 -32.882812 11.582031 -32.066406 10.90625 -31.390625 C 10.238281 -30.710938 9.410156 -30.375 8.421875 -30.375 C 7.453125 -30.375 6.628906 -30.710938 5.953125 -31.390625 C 5.285156 -32.066406 4.953125 -32.882812 4.953125 -33.84375 Z M 4.953125 -33.84375 "/></g></g></g><g fill="#000000" fill-opacity="1"><g transform="translate(324.239485, 228.749999)"><g><path d="M 24.296875 -4.1875 C 21.566406 -1.09375 18.160156 0.453125 14.078125 0.453125 C 12.222656 0.453125 10.535156 0.160156 9.015625 -0.421875 C 7.503906 -1.015625 6.207031 -1.84375 5.125 -2.90625 C 4.050781 -3.96875 3.210938 -5.234375 2.609375 -6.703125 C 2.003906 -8.171875 1.703125 -9.804688 1.703125 -11.609375 C 1.703125 -13.472656 2.015625 -15.175781 2.640625 -16.71875 C 3.273438 -18.257812 4.171875 -19.59375 5.328125 -20.71875 C 6.484375 -21.84375 7.847656 -22.71875 9.421875 -23.34375 C 11.003906 -23.976562 12.738281 -24.296875 14.625 -24.296875 C 17.800781 -24.296875 20.273438 -23.441406 22.046875 -21.734375 C 23.816406 -20.023438 24.703125 -17.625 24.703125 -14.53125 C 24.703125 -14.050781 24.625 -13.757812 24.46875 -13.65625 C 24.320312 -13.550781 23.90625 -13.5 23.21875 -13.5 L 8.734375 -13.5 C 8.609375 -13.226562 8.546875 -12.734375 8.546875 -12.015625 C 8.546875 -9.078125 9.179688 -6.75 10.453125 -5.03125 C 11.734375 -3.320312 13.46875 -2.46875 15.65625 -2.46875 C 16.914062 -2.46875 18.164062 -2.753906 19.40625 -3.328125 C 20.65625 -3.898438 21.867188 -4.710938 23.046875 -5.765625 Z M 15.5625 -16.015625 C 16.769531 -16.015625 17.546875 -16.082031 17.890625 -16.21875 C 18.234375 -16.351562 18.40625 -16.675781 18.40625 -17.1875 C 18.40625 -18.507812 18.03125 -19.585938 17.28125 -20.421875 C 16.53125 -21.265625 15.582031 -21.6875 14.4375 -21.6875 C 13.15625 -21.6875 12.007812 -21.15625 11 -20.09375 C 10 -19.03125 9.347656 -17.671875 9.046875 -16.015625 Z M 15.5625 -16.015625 "/></g></g></g><g fill="#000000" fill-opacity="1"><g transform="translate(350.557644, 228.749999)"><g><path d="M 11.609375 -6.96875 C 11.609375 -5.800781 11.660156 -4.878906 11.765625 -4.203125 C 11.867188 -3.523438 12.085938 -3.003906 12.421875 -2.640625 C 12.753906 -2.285156 13.234375 -2.054688 13.859375 -1.953125 C 14.492188 -1.847656 15.332031 -1.796875 16.375 -1.796875 L 16.375 0 L 1.34375 0 L 1.34375 -1.796875 C 2.25 -1.859375 2.96875 -1.945312 3.5 -2.0625 C 4.039062 -2.1875 4.445312 -2.425781 4.71875 -2.78125 C 4.988281 -3.144531 5.160156 -3.664062 5.234375 -4.34375 C 5.316406 -5.019531 5.359375 -5.925781 5.359375 -7.0625 L 5.359375 -12.5625 C 5.359375 -14.414062 5.3125 -15.894531 5.21875 -17 C 5.125 -18.113281 4.925781 -18.96875 4.625 -19.5625 C 4.332031 -20.164062 3.90625 -20.566406 3.34375 -20.765625 C 2.789062 -20.960938 2.066406 -21.0625 1.171875 -21.0625 L 1.171875 -22.640625 L 10.171875 -24.296875 L 10.890625 -19.125 L 11.0625 -19.125 C 11.875 -20.71875 12.941406 -21.976562 14.265625 -22.90625 C 15.585938 -23.832031 16.984375 -24.296875 18.453125 -24.296875 C 19.585938 -24.296875 20.515625 -24.007812 21.234375 -23.4375 C 21.953125 -22.875 22.3125 -22.15625 22.3125 -21.28125 C 22.3125 -20.320312 22.035156 -19.507812 21.484375 -18.84375 C 20.929688 -18.1875 20.175781 -17.859375 19.21875 -17.859375 C 18.769531 -17.859375 18.363281 -17.945312 18 -18.125 C 17.632812 -18.3125 17.3125 -18.515625 17.03125 -18.734375 C 16.75 -18.960938 16.460938 -19.175781 16.171875 -19.375 C 15.890625 -19.570312 15.597656 -19.671875 15.296875 -19.671875 C 14.722656 -19.671875 14.179688 -19.296875 13.671875 -18.546875 C 13.171875 -17.796875 12.753906 -16.789062 12.421875 -15.53125 C 12.179688 -14.625 11.984375 -13.609375 11.828125 -12.484375 C 11.679688 -11.359375 11.609375 -10.242188 11.609375 -9.140625 Z M 11.609375 -6.96875 "/></g></g></g><g fill="#000000" fill-opacity="1"><g transform="translate(32.373049, 280.549611)"><g><path d="M 23.6875 -20.765625 C 23.6875 -19.492188 23.484375 -18.351562 23.078125 -17.34375 C 22.671875 -16.34375 22.03125 -15.492188 21.15625 -14.796875 C 20.28125 -14.097656 19.140625 -13.554688 17.734375 -13.171875 C 16.328125 -12.785156 14.613281 -12.59375 12.59375 -12.59375 L 9.359375 -12.59375 L 9.359375 -5.65625 C 9.359375 -4.757812 9.410156 -4.03125 9.515625 -3.46875 C 9.628906 -2.90625 9.859375 -2.46875 10.203125 -2.15625 C 10.554688 -1.84375 11.0625 -1.632812 11.71875 -1.53125 C 12.375 -1.425781 13.242188 -1.375 14.328125 -1.375 L 14.328125 0 L 1.625 0 L 1.625 -1.375 C 2.457031 -1.394531 3.128906 -1.460938 3.640625 -1.578125 C 4.160156 -1.703125 4.566406 -1.90625 4.859375 -2.1875 C 5.148438 -2.476562 5.34375 -2.890625 5.4375 -3.421875 C 5.53125 -3.953125 5.578125 -4.632812 5.578125 -5.46875 L 5.578125 -22.25 C 5.578125 -23.09375 5.535156 -23.769531 5.453125 -24.28125 C 5.367188 -24.800781 5.203125 -25.207031 4.953125 -25.5 C 4.703125 -25.800781 4.332031 -26.003906 3.84375 -26.109375 C 3.363281 -26.222656 2.742188 -26.304688 1.984375 -26.359375 L 1.984375 -27.71875 L 13.28125 -27.71875 C 16.59375 -27.71875 19.15625 -27.101562 20.96875 -25.875 C 22.78125 -24.65625 23.6875 -22.953125 23.6875 -20.765625 Z M 9.359375 -14.40625 L 11.921875 -14.40625 C 14.316406 -14.40625 16.097656 -14.863281 17.265625 -15.78125 C 18.429688 -16.707031 19.015625 -18.226562 19.015625 -20.34375 C 19.015625 -22.382812 18.550781 -23.84375 17.625 -24.71875 C 16.695312 -25.59375 15.25 -26.03125 13.28125 -26.03125 L 9.96875 -26.03125 C 9.5625 -26.03125 9.359375 -25.828125 9.359375 -25.421875 Z M 9.359375 -14.40625 "/></g></g></g><g fill="#000000" fill-opacity="1"><g transform="translate(57.105103, 280.549611)"><g><path d="M 7.53125 -5.609375 C 7.53125 -4.703125 7.5625 -3.972656 7.625 -3.421875 C 7.695312 -2.867188 7.847656 -2.4375 8.078125 -2.125 C 8.304688 -1.8125 8.628906 -1.59375 9.046875 -1.46875 C 9.472656 -1.351562 10.035156 -1.285156 10.734375 -1.265625 L 10.734375 0 L 0.796875 0 L 0.796875 -1.265625 C 1.515625 -1.285156 2.085938 -1.359375 2.515625 -1.484375 C 2.953125 -1.617188 3.296875 -1.832031 3.546875 -2.125 C 3.796875 -2.414062 3.960938 -2.816406 4.046875 -3.328125 C 4.128906 -3.847656 4.171875 -4.523438 4.171875 -5.359375 L 4.171875 -20.875 C 4.171875 -22.175781 4.148438 -23.265625 4.109375 -24.140625 C 4.078125 -25.015625 4.023438 -25.609375 3.953125 -25.921875 C 3.835938 -26.472656 3.554688 -26.84375 3.109375 -27.03125 C 2.671875 -27.226562 1.875 -27.328125 0.71875 -27.328125 L 0.71875 -28.546875 L 7.53125 -29.875 Z M 7.53125 -5.609375 "/></g></g></g><g fill="#000000" fill-opacity="1"><g transform="translate(68.80513, 280.549611)"><g><path d="M 16.671875 -13.3125 C 16.671875 -14.300781 16.644531 -15.078125 16.59375 -15.640625 C 16.550781 -16.203125 16.425781 -16.632812 16.21875 -16.9375 C 16.007812 -17.238281 15.707031 -17.441406 15.3125 -17.546875 C 14.914062 -17.660156 14.375 -17.75 13.6875 -17.8125 L 13.6875 -19.078125 L 20.203125 -19.078125 L 20.203125 -8.03125 C 20.203125 -6.65625 20.21875 -5.535156 20.25 -4.671875 C 20.28125 -3.816406 20.332031 -3.171875 20.40625 -2.734375 C 20.457031 -2.421875 20.535156 -2.175781 20.640625 -2 C 20.753906 -1.820312 20.914062 -1.675781 21.125 -1.5625 C 21.34375 -1.457031 21.625 -1.382812 21.96875 -1.34375 C 22.320312 -1.3125 22.773438 -1.296875 23.328125 -1.296875 L 23.328125 -0.03125 L 17.390625 0.390625 L 16.984375 -3.921875 L 16.84375 -3.921875 C 15.9375 -2.429688 14.890625 -1.34375 13.703125 -0.65625 C 12.515625 0.0195312 11.269531 0.359375 9.96875 0.359375 C 8.957031 0.359375 7.976562 0.164062 7.03125 -0.21875 C 6.082031 -0.601562 5.367188 -1.117188 4.890625 -1.765625 C 4.484375 -2.296875 4.191406 -3.023438 4.015625 -3.953125 C 3.835938 -4.890625 3.75 -6.101562 3.75 -7.59375 L 3.75 -13.3125 C 3.75 -14.300781 3.722656 -15.078125 3.671875 -15.640625 C 3.617188 -16.203125 3.488281 -16.632812 3.28125 -16.9375 C 3.082031 -17.238281 2.785156 -17.441406 2.390625 -17.546875 C 1.992188 -17.660156 1.445312 -17.75 0.75 -17.8125 L 0.75 -19.078125 L 7.265625 -19.078125 L 7.265625 -9.25 C 7.265625 -6.632812 7.570312 -4.738281 8.1875 -3.5625 C 8.800781 -2.382812 9.78125 -1.796875 11.125 -1.796875 C 13.238281 -1.796875 14.882812 -3.175781 16.0625 -5.9375 C 16.175781 -6.226562 16.269531 -6.492188 16.34375 -6.734375 C 16.414062 -6.972656 16.472656 -7.234375 16.515625 -7.515625 C 16.566406 -7.804688 16.601562 -8.128906 16.625 -8.484375 C 16.65625 -8.847656 16.671875 -9.285156 16.671875 -9.796875 Z M 16.671875 -13.3125 "/></g></g></g><g fill="#000000" fill-opacity="1"><g transform="translate(92.925177, 280.549611)"><g><path d="M 7.953125 -5.765625 C 7.953125 -4.753906 7.972656 -3.957031 8.015625 -3.375 C 8.066406 -2.800781 8.195312 -2.363281 8.40625 -2.0625 C 8.613281 -1.769531 8.90625 -1.570312 9.28125 -1.46875 C 9.664062 -1.375 10.207031 -1.304688 10.90625 -1.265625 L 10.90625 0 L 1.328125 0 L 1.328125 -1.265625 C 2.023438 -1.304688 2.578125 -1.375 2.984375 -1.46875 C 3.390625 -1.570312 3.703125 -1.765625 3.921875 -2.046875 C 4.140625 -2.335938 4.273438 -2.753906 4.328125 -3.296875 C 4.390625 -3.835938 4.421875 -4.5625 4.421875 -5.46875 L 4.421875 -10.078125 C 4.421875 -11.441406 4.398438 -12.582031 4.359375 -13.5 C 4.328125 -14.414062 4.265625 -15.039062 4.171875 -15.375 C 4.097656 -15.6875 4.015625 -15.929688 3.921875 -16.109375 C 3.828125 -16.285156 3.671875 -16.425781 3.453125 -16.53125 C 3.234375 -16.644531 2.953125 -16.71875 2.609375 -16.75 C 2.265625 -16.789062 1.816406 -16.8125 1.265625 -16.8125 L 1.265625 -18.078125 L 7.125 -19.4375 L 7.59375 -15.84375 L 7.78125 -15.84375 C 8.851562 -17.0625 9.984375 -17.960938 11.171875 -18.546875 C 12.359375 -19.140625 13.675781 -19.4375 15.125 -19.4375 C 16.632812 -19.4375 17.90625 -19.128906 18.9375 -18.515625 C 19.96875 -17.910156 20.6875 -17.03125 21.09375 -15.875 L 21.234375 -15.875 C 22.128906 -17 23.210938 -17.875 24.484375 -18.5 C 25.753906 -19.125 27.109375 -19.4375 28.546875 -19.4375 C 29.671875 -19.4375 30.695312 -19.25 31.625 -18.875 C 32.550781 -18.507812 33.253906 -18.003906 33.734375 -17.359375 C 34.160156 -16.804688 34.460938 -16.078125 34.640625 -15.171875 C 34.828125 -14.273438 34.921875 -13.046875 34.921875 -11.484375 L 34.921875 -5.765625 C 34.921875 -4.773438 34.945312 -3.992188 35 -3.421875 C 35.0625 -2.847656 35.1875 -2.40625 35.375 -2.09375 C 35.570312 -1.78125 35.867188 -1.570312 36.265625 -1.46875 C 36.660156 -1.375 37.207031 -1.304688 37.90625 -1.265625 L 37.90625 0 L 28.328125 0 L 28.328125 -1.265625 C 29.003906 -1.285156 29.546875 -1.347656 29.953125 -1.453125 C 30.359375 -1.566406 30.671875 -1.769531 30.890625 -2.0625 C 31.109375 -2.363281 31.242188 -2.78125 31.296875 -3.3125 C 31.359375 -3.84375 31.390625 -4.5625 31.390625 -5.46875 L 31.390625 -10.015625 C 31.390625 -11.378906 31.316406 -12.535156 31.171875 -13.484375 C 31.023438 -14.429688 30.785156 -15.195312 30.453125 -15.78125 C 30.117188 -16.375 29.679688 -16.800781 29.140625 -17.0625 C 28.597656 -17.320312 27.945312 -17.453125 27.1875 -17.453125 C 26.125 -17.453125 25.128906 -17.160156 24.203125 -16.578125 C 23.285156 -15.992188 22.5625 -15.207031 22.03125 -14.21875 C 21.914062 -13.976562 21.8125 -13.742188 21.71875 -13.515625 C 21.632812 -13.285156 21.566406 -13.03125 21.515625 -12.75 C 21.472656 -12.476562 21.445312 -12.148438 21.4375 -11.765625 C 21.425781 -11.390625 21.421875 -10.910156 21.421875 -10.328125 L 21.421875 -5.765625 C 21.421875 -4.773438 21.441406 -3.992188 21.484375 -3.421875 C 21.535156 -2.847656 21.660156 -2.40625 21.859375 -2.09375 C 22.066406 -1.78125 22.375 -1.570312 22.78125 -1.46875 C 23.195312 -1.375 23.75 -1.304688 24.4375 -1.265625 L 24.4375 0 L 14.875 0 L 14.875 -1.265625 C 15.539062 -1.304688 16.078125 -1.375 16.484375 -1.46875 C 16.890625 -1.570312 17.195312 -1.765625 17.40625 -2.046875 C 17.613281 -2.335938 17.742188 -2.753906 17.796875 -3.296875 C 17.859375 -3.835938 17.890625 -4.5625 17.890625 -5.46875 L 17.890625 -10.015625 C 17.890625 -11.398438 17.816406 -12.566406 17.671875 -13.515625 C 17.523438 -14.460938 17.289062 -15.226562 16.96875 -15.8125 C 16.644531 -16.40625 16.21875 -16.828125 15.6875 -17.078125 C 15.164062 -17.328125 14.519531 -17.453125 13.75 -17.453125 C 12.664062 -17.453125 11.648438 -17.160156 10.703125 -16.578125 C 9.753906 -15.992188 9.039062 -15.207031 8.5625 -14.21875 C 8.445312 -13.976562 8.347656 -13.742188 8.265625 -13.515625 C 8.179688 -13.285156 8.113281 -13.03125 8.0625 -12.75 C 8.007812 -12.476562 7.976562 -12.148438 7.96875 -11.765625 C 7.957031 -11.390625 7.953125 -10.910156 7.953125 -10.328125 Z M 7.953125 -5.765625 "/></g></g></g><g fill="#000000" fill-opacity="1"><g transform="translate(131.553253, 280.549611)"><g><path d="M 18.796875 -3.34375 C 16.753906 -0.875 14.222656 0.359375 11.203125 0.359375 C 9.785156 0.359375 8.5 0.125 7.34375 -0.34375 C 6.1875 -0.8125 5.191406 -1.46875 4.359375 -2.3125 C 3.535156 -3.164062 2.894531 -4.1875 2.4375 -5.375 C 1.988281 -6.5625 1.765625 -7.878906 1.765625 -9.328125 C 1.765625 -10.785156 2.003906 -12.140625 2.484375 -13.390625 C 2.960938 -14.640625 3.640625 -15.707031 4.515625 -16.59375 C 5.390625 -17.476562 6.429688 -18.171875 7.640625 -18.671875 C 8.859375 -19.179688 10.1875 -19.4375 11.625 -19.4375 C 13.957031 -19.4375 15.757812 -18.804688 17.03125 -17.546875 C 18.300781 -16.285156 18.9375 -14.476562 18.9375 -12.125 C 18.9375 -11.789062 18.867188 -11.585938 18.734375 -11.515625 C 18.609375 -11.441406 18.300781 -11.40625 17.8125 -11.40625 L 5.96875 -11.40625 C 5.925781 -11.21875 5.890625 -10.984375 5.859375 -10.703125 C 5.835938 -10.429688 5.828125 -10.128906 5.828125 -9.796875 C 5.828125 -8.546875 5.976562 -7.410156 6.28125 -6.390625 C 6.582031 -5.367188 7.015625 -4.5 7.578125 -3.78125 C 8.140625 -3.0625 8.8125 -2.503906 9.59375 -2.109375 C 10.375 -1.710938 11.242188 -1.515625 12.203125 -1.515625 C 13.210938 -1.515625 14.148438 -1.734375 15.015625 -2.171875 C 15.878906 -2.617188 16.765625 -3.347656 17.671875 -4.359375 Z M 12.859375 -13.0625 C 13.335938 -13.0625 13.71875 -13.070312 14 -13.09375 C 14.289062 -13.125 14.507812 -13.175781 14.65625 -13.25 C 14.800781 -13.320312 14.894531 -13.421875 14.9375 -13.546875 C 14.988281 -13.679688 15.015625 -13.859375 15.015625 -14.078125 C 15.015625 -15.179688 14.660156 -16.0625 13.953125 -16.71875 C 13.242188 -17.382812 12.273438 -17.71875 11.046875 -17.71875 C 8.453125 -17.71875 6.847656 -16.164062 6.234375 -13.0625 Z M 12.859375 -13.0625 "/></g></g></g><g fill="#000000" fill-opacity="1"><g transform="translate(152.181296, 280.549611)"><g/></g></g><g fill="#f4afe8" fill-opacity="1"><g transform="translate(162.521478, 280.549611)"><g><path d="M 12.484375 -16.484375 C 13.640625 -17.367188 14.476562 -18.273438 15 -19.203125 C 15.53125 -20.128906 15.796875 -21.132812 15.796875 -22.21875 C 15.796875 -23.34375 15.546875 -24.234375 15.046875 -24.890625 C 14.546875 -25.554688 13.875 -25.890625 13.03125 -25.890625 C 11.445312 -25.890625 10.65625 -24.675781 10.65625 -22.25 C 10.65625 -21.1875 10.8125 -20.171875 11.125 -19.203125 C 11.4375 -18.234375 11.890625 -17.328125 12.484375 -16.484375 Z M 10.4375 -13.109375 C 8.925781 -12.242188 7.75 -11.226562 6.90625 -10.0625 C 6.070312 -8.894531 5.65625 -7.6875 5.65625 -6.4375 C 5.65625 -5.125 6.078125 -4.039062 6.921875 -3.1875 C 7.773438 -2.332031 8.875 -1.90625 10.21875 -1.90625 C 11.226562 -1.90625 12.304688 -2.15625 13.453125 -2.65625 C 14.609375 -3.164062 15.703125 -3.875 16.734375 -4.78125 Z M 19.328125 -7.53125 C 19.910156 -8.25 20.445312 -8.945312 20.9375 -9.625 C 21.425781 -10.3125 21.847656 -10.957031 22.203125 -11.5625 C 22.566406 -12.175781 22.84375 -12.734375 23.03125 -13.234375 C 23.226562 -13.742188 23.328125 -14.15625 23.328125 -14.46875 C 23.328125 -14.851562 23.148438 -15.128906 22.796875 -15.296875 C 22.453125 -15.460938 21.894531 -15.546875 21.125 -15.546875 L 21.125 -16.8125 L 29.40625 -16.8125 L 29.40625 -15.546875 C 28.882812 -15.546875 28.4375 -15.515625 28.0625 -15.453125 C 27.6875 -15.398438 27.351562 -15.300781 27.0625 -15.15625 C 26.78125 -15.007812 26.515625 -14.816406 26.265625 -14.578125 C 26.015625 -14.335938 25.769531 -14.023438 25.53125 -13.640625 L 20.40625 -6.15625 C 21.414062 -4.789062 22.46875 -3.753906 23.5625 -3.046875 C 24.65625 -2.335938 25.738281 -1.984375 26.8125 -1.984375 C 27.125 -1.984375 27.398438 -2.007812 27.640625 -2.0625 C 27.890625 -2.125 28.113281 -2.234375 28.3125 -2.390625 C 28.519531 -2.546875 28.710938 -2.753906 28.890625 -3.015625 C 29.066406 -3.285156 29.253906 -3.625 29.453125 -4.03125 L 30.34375 -3.78125 C 30.082031 -2.4375 29.492188 -1.410156 28.578125 -0.703125 C 27.671875 0.00390625 26.484375 0.359375 25.015625 0.359375 C 24.421875 0.359375 23.851562 0.289062 23.3125 0.15625 C 22.769531 0.03125 22.222656 -0.1875 21.671875 -0.5 C 21.117188 -0.8125 20.53125 -1.21875 19.90625 -1.71875 C 19.28125 -2.226562 18.597656 -2.851562 17.859375 -3.59375 C 16.660156 -2.351562 15.273438 -1.382812 13.703125 -0.6875 C 12.128906 0.0078125 10.523438 0.359375 8.890625 0.359375 C 7.785156 0.359375 6.769531 0.195312 5.84375 -0.125 C 4.925781 -0.445312 4.128906 -0.890625 3.453125 -1.453125 C 2.785156 -2.015625 2.257812 -2.6875 1.875 -3.46875 C 1.488281 -4.25 1.296875 -5.097656 1.296875 -6.015625 C 1.296875 -7.640625 1.941406 -9.140625 3.234375 -10.515625 C 4.535156 -11.898438 6.613281 -13.289062 9.46875 -14.6875 C 8.695312 -15.8125 8.132812 -16.863281 7.78125 -17.84375 C 7.4375 -18.832031 7.265625 -19.867188 7.265625 -20.953125 C 7.265625 -22.003906 7.414062 -22.96875 7.71875 -23.84375 C 8.019531 -24.71875 8.445312 -25.46875 9 -26.09375 C 9.550781 -26.71875 10.207031 -27.203125 10.96875 -27.546875 C 11.738281 -27.898438 12.59375 -28.078125 13.53125 -28.078125 C 14.351562 -28.078125 15.101562 -27.941406 15.78125 -27.671875 C 16.46875 -27.410156 17.0625 -27.039062 17.5625 -26.5625 C 18.070312 -26.082031 18.460938 -25.519531 18.734375 -24.875 C 19.015625 -24.226562 19.15625 -23.507812 19.15625 -22.71875 C 19.15625 -21.375 18.71875 -20.113281 17.84375 -18.9375 C 16.96875 -17.757812 15.519531 -16.488281 13.5 -15.125 Z M 19.328125 -7.53125 "/></g></g></g><g fill="#000000" fill-opacity="1"><g transform="translate(194.138664, 280.549611)"><g/></g></g><g fill="#000000" fill-opacity="1"><g transform="translate(204.470686, 280.549611)"><g><path d="M 24.796875 -27.71875 L 25.8125 -27.71875 L 26.140625 -19.4375 L 24.796875 -19.4375 C 24.273438 -21.550781 23.253906 -23.207031 21.734375 -24.40625 C 20.222656 -25.601562 18.398438 -26.203125 16.265625 -26.203125 C 14.804688 -26.203125 13.5 -25.914062 12.34375 -25.34375 C 11.195312 -24.769531 10.226562 -23.941406 9.4375 -22.859375 C 8.644531 -21.773438 8.035156 -20.453125 7.609375 -18.890625 C 7.191406 -17.335938 6.984375 -15.578125 6.984375 -13.609375 C 6.984375 -9.742188 7.785156 -6.769531 9.390625 -4.6875 C 11.003906 -2.613281 13.332031 -1.578125 16.375 -1.578125 C 21.007812 -1.578125 23.988281 -4.039062 25.3125 -8.96875 L 26.78125 -8.96875 L 26.78125 0 L 25.53125 0 L 24.703125 -2.84375 C 22.179688 -0.707031 19.128906 0.359375 15.546875 0.359375 C 13.503906 0.359375 11.660156 0.0351562 10.015625 -0.609375 C 8.378906 -1.253906 6.976562 -2.171875 5.8125 -3.359375 C 4.644531 -4.546875 3.742188 -5.992188 3.109375 -7.703125 C 2.472656 -9.410156 2.15625 -11.304688 2.15625 -13.390625 C 2.15625 -15.578125 2.488281 -17.566406 3.15625 -19.359375 C 3.832031 -21.160156 4.773438 -22.707031 5.984375 -24 C 7.203125 -25.300781 8.65625 -26.304688 10.34375 -27.015625 C 12.039062 -27.722656 13.910156 -28.078125 15.953125 -28.078125 C 17.390625 -28.078125 18.742188 -27.875 20.015625 -27.46875 C 21.285156 -27.0625 22.664062 -26.398438 24.15625 -25.484375 Z M 24.796875 -27.71875 "/></g></g></g><g fill="#000000" fill-opacity="1"><g transform="translate(233.342743, 280.549611)"><g><path d="M 11.703125 -19.4375 C 13.066406 -19.4375 14.359375 -19.191406 15.578125 -18.703125 C 16.804688 -18.210938 17.882812 -17.535156 18.8125 -16.671875 C 19.738281 -15.804688 20.46875 -14.78125 21 -13.59375 C 21.539062 -12.40625 21.8125 -11.101562 21.8125 -9.6875 C 21.8125 -8.21875 21.539062 -6.867188 21 -5.640625 C 20.46875 -4.421875 19.738281 -3.367188 18.8125 -2.484375 C 17.882812 -1.597656 16.804688 -0.898438 15.578125 -0.390625 C 14.359375 0.109375 13.066406 0.359375 11.703125 0.359375 C 10.359375 0.359375 9.078125 0.113281 7.859375 -0.375 C 6.648438 -0.863281 5.585938 -1.550781 4.671875 -2.4375 C 3.765625 -3.332031 3.046875 -4.394531 2.515625 -5.625 C 1.992188 -6.863281 1.734375 -8.21875 1.734375 -9.6875 C 1.734375 -11.101562 1.992188 -12.410156 2.515625 -13.609375 C 3.046875 -14.804688 3.765625 -15.835938 4.671875 -16.703125 C 5.585938 -17.566406 6.648438 -18.238281 7.859375 -18.71875 C 9.078125 -19.195312 10.359375 -19.4375 11.703125 -19.4375 Z M 11.703125 -17.71875 C 10.816406 -17.71875 10.003906 -17.523438 9.265625 -17.140625 C 8.535156 -16.753906 7.910156 -16.207031 7.390625 -15.5 C 6.878906 -14.789062 6.484375 -13.9375 6.203125 -12.9375 C 5.929688 -11.945312 5.796875 -10.847656 5.796875 -9.640625 C 5.796875 -8.398438 5.929688 -7.273438 6.203125 -6.265625 C 6.484375 -5.253906 6.878906 -4.394531 7.390625 -3.6875 C 7.910156 -2.976562 8.53125 -2.429688 9.25 -2.046875 C 9.96875 -1.660156 10.785156 -1.46875 11.703125 -1.46875 C 12.609375 -1.46875 13.429688 -1.660156 14.171875 -2.046875 C 14.921875 -2.429688 15.5625 -2.984375 16.09375 -3.703125 C 16.625 -4.421875 17.03125 -5.285156 17.3125 -6.296875 C 17.601562 -7.304688 17.75 -8.421875 17.75 -9.640625 C 17.75 -10.847656 17.601562 -11.941406 17.3125 -12.921875 C 17.03125 -13.910156 16.625 -14.757812 16.09375 -15.46875 C 15.5625 -16.175781 14.921875 -16.726562 14.171875 -17.125 C 13.429688 -17.519531 12.609375 -17.71875 11.703125 -17.71875 Z M 11.703125 -17.71875 "/></g></g></g><g fill="#000000" fill-opacity="1"><g transform="translate(256.886786, 280.549611)"><g><path d="M 7.78125 -5.65625 C 7.78125 -4.664062 7.800781 -3.890625 7.84375 -3.328125 C 7.894531 -2.765625 8.019531 -2.332031 8.21875 -2.03125 C 8.425781 -1.726562 8.726562 -1.53125 9.125 -1.4375 C 9.519531 -1.34375 10.066406 -1.269531 10.765625 -1.21875 L 10.765625 0 L 1.328125 0 L 1.328125 -1.21875 C 2.003906 -1.269531 2.539062 -1.34375 2.9375 -1.4375 C 3.332031 -1.53125 3.632812 -1.722656 3.84375 -2.015625 C 4.0625 -2.304688 4.203125 -2.710938 4.265625 -3.234375 C 4.328125 -3.765625 4.359375 -4.488281 4.359375 -5.40625 L 4.359375 -10.1875 C 4.359375 -13.039062 4.285156 -14.78125 4.140625 -15.40625 C 4.066406 -15.71875 3.972656 -15.972656 3.859375 -16.171875 C 3.753906 -16.378906 3.59375 -16.535156 3.375 -16.640625 C 3.164062 -16.753906 2.890625 -16.828125 2.546875 -16.859375 C 2.210938 -16.898438 1.785156 -16.921875 1.265625 -16.921875 L 1.265625 -18.078125 L 7.015625 -19.4375 L 7.453125 -15.875 L 7.59375 -15.875 C 8.507812 -17 9.578125 -17.875 10.796875 -18.5 C 12.023438 -19.125 13.359375 -19.4375 14.796875 -19.4375 C 15.898438 -19.4375 16.90625 -19.253906 17.8125 -18.890625 C 18.726562 -18.535156 19.425781 -18.046875 19.90625 -17.421875 C 20.3125 -16.867188 20.597656 -16.15625 20.765625 -15.28125 C 20.941406 -14.40625 21.03125 -13.195312 21.03125 -11.65625 L 21.03125 -5.65625 C 21.03125 -4.664062 21.054688 -3.890625 21.109375 -3.328125 C 21.171875 -2.765625 21.296875 -2.332031 21.484375 -2.03125 C 21.679688 -1.726562 21.976562 -1.53125 22.375 -1.4375 C 22.769531 -1.34375 23.289062 -1.269531 23.9375 -1.21875 L 23.9375 0 L 14.609375 0 L 14.609375 -1.21875 C 15.285156 -1.25 15.820312 -1.316406 16.21875 -1.421875 C 16.613281 -1.523438 16.910156 -1.722656 17.109375 -2.015625 C 17.316406 -2.304688 17.453125 -2.71875 17.515625 -3.25 C 17.578125 -3.789062 17.609375 -4.507812 17.609375 -5.40625 L 17.609375 -10.15625 C 17.609375 -11.519531 17.535156 -12.671875 17.390625 -13.609375 C 17.242188 -14.546875 17.007812 -15.300781 16.6875 -15.875 C 16.363281 -16.445312 15.9375 -16.859375 15.40625 -17.109375 C 14.875 -17.367188 14.238281 -17.5 13.5 -17.5 C 12.414062 -17.5 11.425781 -17.210938 10.53125 -16.640625 C 9.632812 -16.078125 8.929688 -15.304688 8.421875 -14.328125 C 8.304688 -14.085938 8.203125 -13.859375 8.109375 -13.640625 C 8.023438 -13.421875 7.957031 -13.164062 7.90625 -12.875 C 7.863281 -12.59375 7.832031 -12.265625 7.8125 -11.890625 C 7.789062 -11.523438 7.78125 -11.050781 7.78125 -10.46875 Z M 7.78125 -5.65625 "/></g></g></g><g fill="#000000" fill-opacity="1"><g transform="translate(281.690834, 280.549611)"><g><path d="M 3.09375 0 L 2.296875 0 L 2.296875 -6.1875 L 3.203125 -6.1875 C 4.140625 -2.800781 5.84375 -1.109375 8.3125 -1.109375 C 9.269531 -1.109375 10.03125 -1.34375 10.59375 -1.8125 C 11.164062 -2.28125 11.453125 -2.992188 11.453125 -3.953125 C 11.453125 -4.316406 11.394531 -4.625 11.28125 -4.875 C 11.175781 -5.125 10.972656 -5.382812 10.671875 -5.65625 C 10.367188 -5.9375 9.945312 -6.253906 9.40625 -6.609375 C 8.875 -6.972656 8.160156 -7.429688 7.265625 -7.984375 C 6.453125 -8.492188 5.742188 -8.960938 5.140625 -9.390625 C 4.546875 -9.828125 4.046875 -10.265625 3.640625 -10.703125 C 3.234375 -11.148438 2.925781 -11.625 2.71875 -12.125 C 2.507812 -12.632812 2.40625 -13.222656 2.40625 -13.890625 C 2.40625 -14.710938 2.539062 -15.460938 2.8125 -16.140625 C 3.09375 -16.828125 3.472656 -17.410156 3.953125 -17.890625 C 4.441406 -18.367188 5.007812 -18.742188 5.65625 -19.015625 C 6.300781 -19.296875 7.007812 -19.4375 7.78125 -19.4375 C 8.425781 -19.4375 9.097656 -19.332031 9.796875 -19.125 C 10.492188 -18.925781 11.101562 -18.660156 11.625 -18.328125 L 12.34375 -19.078125 L 13.03125 -19.078125 L 13.03125 -13.890625 L 12.09375 -13.890625 C 11.5625 -15.359375 10.984375 -16.40625 10.359375 -17.03125 C 9.742188 -17.65625 8.976562 -17.96875 8.0625 -17.96875 C 7.25 -17.96875 6.59375 -17.75 6.09375 -17.3125 C 5.601562 -16.882812 5.359375 -16.285156 5.359375 -15.515625 C 5.359375 -15.109375 5.425781 -14.753906 5.5625 -14.453125 C 5.695312 -14.148438 5.90625 -13.851562 6.1875 -13.5625 C 6.476562 -13.28125 6.84375 -12.988281 7.28125 -12.6875 C 7.726562 -12.382812 8.265625 -12.039062 8.890625 -11.65625 C 9.921875 -11.007812 10.800781 -10.4375 11.53125 -9.9375 C 12.269531 -9.4375 12.863281 -8.9375 13.3125 -8.4375 C 13.769531 -7.945312 14.109375 -7.4375 14.328125 -6.90625 C 14.546875 -6.382812 14.65625 -5.785156 14.65625 -5.109375 C 14.65625 -3.410156 14.101562 -2.070312 13 -1.09375 C 11.894531 -0.125 10.441406 0.359375 8.640625 0.359375 C 6.765625 0.359375 5.15625 -0.179688 3.8125 -1.265625 Z M 3.09375 0 "/></g></g></g><g fill="#000000" fill-opacity="1"><g transform="translate(298.034862, 280.549611)"><g><path d="M 18.796875 -3.34375 C 16.753906 -0.875 14.222656 0.359375 11.203125 0.359375 C 9.785156 0.359375 8.5 0.125 7.34375 -0.34375 C 6.1875 -0.8125 5.191406 -1.46875 4.359375 -2.3125 C 3.535156 -3.164062 2.894531 -4.1875 2.4375 -5.375 C 1.988281 -6.5625 1.765625 -7.878906 1.765625 -9.328125 C 1.765625 -10.785156 2.003906 -12.140625 2.484375 -13.390625 C 2.960938 -14.640625 3.640625 -15.707031 4.515625 -16.59375 C 5.390625 -17.476562 6.429688 -18.171875 7.640625 -18.671875 C 8.859375 -19.179688 10.1875 -19.4375 11.625 -19.4375 C 13.957031 -19.4375 15.757812 -18.804688 17.03125 -17.546875 C 18.300781 -16.285156 18.9375 -14.476562 18.9375 -12.125 C 18.9375 -11.789062 18.867188 -11.585938 18.734375 -11.515625 C 18.609375 -11.441406 18.300781 -11.40625 17.8125 -11.40625 L 5.96875 -11.40625 C 5.925781 -11.21875 5.890625 -10.984375 5.859375 -10.703125 C 5.835938 -10.429688 5.828125 -10.128906 5.828125 -9.796875 C 5.828125 -8.546875 5.976562 -7.410156 6.28125 -6.390625 C 6.582031 -5.367188 7.015625 -4.5 7.578125 -3.78125 C 8.140625 -3.0625 8.8125 -2.503906 9.59375 -2.109375 C 10.375 -1.710938 11.242188 -1.515625 12.203125 -1.515625 C 13.210938 -1.515625 14.148438 -1.734375 15.015625 -2.171875 C 15.878906 -2.617188 16.765625 -3.347656 17.671875 -4.359375 Z M 12.859375 -13.0625 C 13.335938 -13.0625 13.71875 -13.070312 14 -13.09375 C 14.289062 -13.125 14.507812 -13.175781 14.65625 -13.25 C 14.800781 -13.320312 14.894531 -13.421875 14.9375 -13.546875 C 14.988281 -13.679688 15.015625 -13.859375 15.015625 -14.078125 C 15.015625 -15.179688 14.660156 -16.0625 13.953125 -16.71875 C 13.242188 -17.382812 12.273438 -17.71875 11.046875 -17.71875 C 8.453125 -17.71875 6.847656 -16.164062 6.234375 -13.0625 Z M 12.859375 -13.0625 "/></g></g></g><g fill="#000000" fill-opacity="1"><g transform="translate(318.662905, 280.549611)"><g><path d="M 8.203125 -5.71875 C 8.203125 -4.78125 8.242188 -4.03125 8.328125 -3.46875 C 8.410156 -2.90625 8.570312 -2.460938 8.8125 -2.140625 C 9.0625 -1.816406 9.398438 -1.59375 9.828125 -1.46875 C 10.253906 -1.351562 10.832031 -1.285156 11.5625 -1.265625 L 11.5625 0 L 1.21875 0 L 1.21875 -1.265625 C 1.9375 -1.285156 2.523438 -1.359375 2.984375 -1.484375 C 3.441406 -1.617188 3.796875 -1.835938 4.046875 -2.140625 C 4.296875 -2.441406 4.460938 -2.863281 4.546875 -3.40625 C 4.640625 -3.945312 4.6875 -4.632812 4.6875 -5.46875 L 4.6875 -10.078125 C 4.6875 -11.472656 4.664062 -12.617188 4.625 -13.515625 C 4.59375 -14.421875 4.523438 -15.039062 4.421875 -15.375 C 4.304688 -15.925781 4.03125 -16.300781 3.59375 -16.5 C 3.164062 -16.707031 2.351562 -16.8125 1.15625 -16.8125 L 1.15625 -18.078125 L 8.203125 -19.4375 Z M 4.0625 -26.75 C 4.0625 -27.375 4.273438 -27.898438 4.703125 -28.328125 C 5.140625 -28.765625 5.671875 -28.984375 6.296875 -28.984375 C 6.921875 -28.984375 7.445312 -28.765625 7.875 -28.328125 C 8.3125 -27.898438 8.53125 -27.375 8.53125 -26.75 C 8.53125 -26.125 8.3125 -25.59375 7.875 -25.15625 C 7.445312 -24.726562 6.921875 -24.515625 6.296875 -24.515625 C 5.671875 -24.515625 5.140625 -24.726562 4.703125 -25.15625 C 4.273438 -25.59375 4.0625 -26.125 4.0625 -26.75 Z M 4.0625 -26.75 "/></g></g></g><g fill="#000000" fill-opacity="1"><g transform="translate(330.938924, 280.549611)"><g><path d="M 7.53125 -5.609375 C 7.53125 -4.703125 7.5625 -3.972656 7.625 -3.421875 C 7.695312 -2.867188 7.847656 -2.4375 8.078125 -2.125 C 8.304688 -1.8125 8.628906 -1.59375 9.046875 -1.46875 C 9.472656 -1.351562 10.035156 -1.285156 10.734375 -1.265625 L 10.734375 0 L 0.796875 0 L 0.796875 -1.265625 C 1.515625 -1.285156 2.085938 -1.359375 2.515625 -1.484375 C 2.953125 -1.617188 3.296875 -1.832031 3.546875 -2.125 C 3.796875 -2.414062 3.960938 -2.816406 4.046875 -3.328125 C 4.128906 -3.847656 4.171875 -4.523438 4.171875 -5.359375 L 4.171875 -20.875 C 4.171875 -22.175781 4.148438 -23.265625 4.109375 -24.140625 C 4.078125 -25.015625 4.023438 -25.609375 3.953125 -25.921875 C 3.835938 -26.472656 3.554688 -26.84375 3.109375 -27.03125 C 2.671875 -27.226562 1.875 -27.328125 0.71875 -27.328125 L 0.71875 -28.546875 L 7.53125 -29.875 Z M 7.53125 -5.609375 "/></g></g></g></svg>